<svg width="472" height="760" viewBox="0 0 472 760" fill="none" xmlns="http://www.w3.org/2000/svg">
<g clip-path="url(#clip0_4_2)">
<path d="M171.71 2C171.71 2 18.5798 34.4304 12.273 121.074C5.96621 207.717 243.871 138.26 148.631 319.074C53.3899 499.887 -32.6866 504.363 12.273 617.074C57.2326 729.785 177.96 788.953 318.21 744.2C458.461 699.446 471.663 412.074 471.663 412.074" stroke="#D0D5F6" stroke-width="2"/>
<path d="M213.7 2C213.7 2 93.575 30.4814 88.6276 106.575C83.6802 182.668 270.307 121.669 195.594 280.465C120.882 439.262 53.3587 443.192 88.6276 542.179C123.897 641.165 218.602 693.129 328.623 653.825C438.643 614.521 449 362.141 449 362.141" stroke="#D0D5F6" stroke-width="2"/>
<path d="M249.935 0C249.935 0 159.03 24.841 155.286 91.2081C151.542 157.575 292.773 104.373 236.234 242.872C179.695 381.371 128.596 384.799 155.286 471.133C181.976 557.468 253.645 602.789 336.904 568.509C420.163 534.229 428 314.108 428 314.108" stroke="#D0D5F6" stroke-width="2"/>
</g>
<defs>
<clipPath id="clip0_4_2">
<rect width="472" height="760" fill="white"/>
</clipPath>
</defs>
</svg>
